<svg viewBox="0 0 48 49" fill="none" xmlns="http://www.w3.org/2000/svg">
    <path
      d="M0 48.002V0h.88v.64C.88 4.8 1.92 8.628 4 12.12c2.08 3.495 4.88 6.268 8.4 8.321 3.52 2.053 7.386 3.08 11.6 3.08 4.212 0 8.011-1.025 11.56-3.08 3.546-2.053 6.346-4.826 8.4-8.32C46.011 8.627 47.04 4.8 47.04.64V0H48v48.002h-.96v-.64c0-4.16-1.028-7.986-3.08-11.48-2.054-3.493-4.855-6.266-8.4-8.321-3.549-2.053-7.4-3.08-11.56-3.08-4.161 0-8.08 1.026-11.6 3.08-3.521 2.053-6.321 4.826-8.4 8.32-2.08 3.495-3.12 7.32-3.12 11.48v.64H0Z"
      fill="#040478"
    />
</svg>
